# xmcd
#
# Track frame offsets: 
#        150
#        18893
#        36314
#
# Disc length: 708 seconds
#
# Revision: 0
# Processed by: cddbd v1.5.2PL0 Copyright (c) Steve Scherf et al.
# Submitted via: ExactAudioCopyFreeDBPlugin 1.0
#
DISCID=1a02c203
DTITLE=Dr. Dre - Deep Cover (Promo Single) (Vinyl)
DYEAR=1992
DGENRE=Rap
TTITLE0=Deep Cover Feat. Snoop Doggy Dogg (Explicit)
TTITLE1=Deep Cover Feat. Snoop Doggy Dogg (Instrumental)
TTITLE2=Deep Cover Feat. Snoop Doggy Dogg (Radio Edit)
EXTD=
EXTT0=
EXTT1=
EXTT2=
PLAYORDER=
